<?xml version="1.0" standalone="no"?>
<!DOCTYPE svg PUBLIC "-//W3C//DTD SVG 20010904//EN"
 "http://www.w3.org/TR/2001/REC-SVG-20010904/DTD/svg10.dtd">
<svg version="1.0" xmlns="http://www.w3.org/2000/svg"
 width="925.000000pt" height="925.000000pt" viewBox="0 0 925.000000 925.000000"
 preserveAspectRatio="xMidYMid meet">
<metadata>
Created by potrace 1.14, written by Peter Selinger 2001-2017
</metadata>
<g transform="translate(0.000000,925.000000) scale(0.100000,-0.100000)"
fill="#000000" stroke="none">
<path d="M4400 8900 c-1268 -67 -2438 -687 -3203 -1698 -463 -611 -737 -1299
-844 -2117 -14 -112 -18 -209 -18 -485 0 -370 9 -488 61 -770 264 -1443 1256
-2655 2624 -3208 158 -63 438 -154 465 -150 18 3 55 125 337 1108 175 608 322
1137 328 1176 33 215 -96 462 -296 566 -125 65 -74 62 -979 68 l-830 5 -73 27
c-96 35 -159 76 -231 153 -101 108 -151 235 -151 385 0 97 18 176 56 253 29
57 505 708 1014 1387 296 395 1170 1565 2089 2798 194 261 351 476 348 478
-18 19 -490 35 -697 24z"/>
<path d="M5860 8717 c0 -2 -142 -498 -316 -1103 -280 -973 -316 -1109 -321
-1189 -10 -167 43 -303 166 -425 88 -87 148 -122 257 -150 74 -19 113 -20 853
-20 853 0 851 0 978 -61 95 -45 197 -149 247 -249 86 -176 86 -362 -1 -521
-37 -68 -695 -958 -1782 -2413 -955 -1277 -1662 -2228 -1668 -2241 -8 -23 73
-28 420 -22 335 5 418 12 672 56 637 111 1254 373 1783 759 352 255 692 595
943 942 946 1302 1092 3014 379 4441 -208 416 -442 747 -765 1078 -486 500
-1052 859 -1700 1077 -124 42 -145 48 -145 41z"/>
</g>
</svg>
